<?xml version="1.0" encoding="UTF-8"?>
<svg id="Layer_2" data-name="Layer 2" xmlns="http://www.w3.org/2000/svg" viewBox="0 0 335.48 336.17">
  <defs>
    <style>
      .cls-1 {
        fill: #fff;
        stroke-width: 0px;
      }
    </style>
  </defs>
  <g id="Layer_2-2" data-name="Layer 2">
    <g>
      <path class="cls-1" d="m335.48,99.27v135.19c-.18,1.17-.48,2.34-.53,3.51-.24,6.66-.94,13.28-2.1,19.84-3.73,21.06-12.63,39.36-28.83,53.72-17.55,15.57-38.68,21.68-61.53,23.38-7.94.59-15.92.23-23.83,1.27h-101.06c-2-.76-4.11-.47-6.17-.52-13.45-.35-26.88-.87-40.03-4.1-27.64-6.78-48.21-22.51-60.45-48.43-7.61-16.12-9.58-33.46-10.17-51.05C-.4,195.9.03,159.7.31,123.52c.13-16.48.25-33.04,3.81-49.28C10.43,45.49,26.13,23.91,53.02,11.15,68.92,3.6,86.02,1.36,103.39.95c46.35-1.1,92.7-1.64,139.03.6,13.5.65,26.7,3.26,39.08,8.87,30.76,13.93,46.92,38.64,51.98,71.33.9,5.8,1.34,11.67,2,17.51Zm-167.41,206.7c8.86,0,17.72.09,26.58-.02,19.13-.24,38.33.4,57.29-2.65,25.74-4.14,42.86-18.49,49.8-44.06,2.83-10.42,3.2-21.16,3.53-31.87,1.05-33.9.78-67.8.41-101.7-.15-13.54-.3-27.11-2.29-40.58-4-27.02-20.5-44.91-47.19-50.95-11.6-2.63-23.44-2.78-35.23-3.02-31.27-.62-62.55-.55-93.83-.19-14.97.17-30-.06-44.78,2.79-25.13,4.85-41.51,19.36-47.9,44.46-2.91,11.43-3.1,23.16-3.42,34.85-.75,27.23-.7,54.46-.44,81.69.18,18.68-.25,37.42,2.38,56,2.62,18.52,10.67,33.91,27.01,44,10.87,6.71,23.07,9.13,35.62,9.95,24.14,1.58,48.31,1.27,72.48,1.29Z"/>
      <path class="cls-1" d="m167.91,254.52c-47.8-.3-86.49-39.19-86.14-86.6.35-47.83,39.27-86.44,86.69-86,47.93.44,86.45,39.31,85.92,86.71-.53,47.84-39.14,86.18-86.47,85.88Zm-55.73-86.29c0,30.96,24.9,55.87,55.87,55.89,30.99.02,55.89-24.79,55.97-55.78.08-31.09-24.92-56.1-56.03-56.06-30.95.05-55.82,24.98-55.81,55.95Z"/>
      <path class="cls-1" d="m277.91,78.58c-.04,11.23-9.08,20.13-20.34,20.03-10.99-.1-19.9-9.17-19.86-20.23.04-11.07,8.96-19.96,20.06-19.98,11.29-.02,20.19,8.89,20.15,20.18Z"/>
    </g>
  </g>
</svg>