<?xml version="1.0" encoding="UTF-8"?>
<svg id="Layer_2" data-name="Layer 2" xmlns="http://www.w3.org/2000/svg" viewBox="0 0 336.17 336">
  <defs>
    <style>
      .cls-1 {
        fill: #fff;
        stroke-width: 0px;
      }
    </style>
  </defs>
  <g id="Layer_2-2" data-name="Layer 2">
    <path class="cls-1" d="m158.2,0h19.7c.85.18,1.68.48,2.54.54,26.3,1.85,50.9,9.38,73.35,23.13,43.57,26.69,70.35,65.19,79.76,115.53,1.18,6.3,1.76,12.71,2.62,19.08v19.7c-.87,2.3-.54,4.73-.8,7.09-3.95,35.35-16.97,66.94-40.79,93.42-40.02,44.48-90.15,63.18-149.59,56.04-23.99-2.88-46.17-11.34-66.53-24.39-2.06-1.32-3.81-1.46-6.08-.72-19.22,6.23-38.47,12.36-57.72,18.51-1.07.34-2.12.96-3.49.67,6.28-18.7,12.37-37.28,18.83-55.72,1.56-4.44,1.17-7.62-1.52-11.62C6.07,227.97-2.9,191.1.81,151.29c2.57-27.58,11.65-53.11,27.25-76.05C54.97,35.7,91.96,11.36,139.07,2.54c6.34-1.19,12.79-1.4,19.13-2.54Zm65.69,262.15c3.83.21,8.48-.57,12.93-2.12,23.75-8.25,31.84-19.67,32.54-41.61.11-3.48-1.18-5.8-4.33-7.32-12.4-5.98-24.61-12.35-37.23-17.85-6.8-2.96-10.51-1.86-14.96,4.2-3.11,4.23-6.18,8.49-9.42,12.61-5.34,6.79-8.82,7.64-16.74,4.41-27.45-11.22-47.92-30.41-63.33-55.4-3.54-5.74-3.36-7.66,1.16-12.8,3.11-3.53,6.36-6.95,9.28-10.62,2.68-3.37,5.19-7.07,3.25-11.69-5.87-14-11.3-28.18-17.72-41.95-.9-1.93-2.19-3.69-4.4-4.13-9.02-1.76-18.26-2.34-25.68,3.91-15.95,13.43-21.06,31.19-17.92,51.34,2.23,14.3,8.94,26.82,17.06,38.67,13.05,19.03,27.79,36.53,45.37,51.6,19.55,16.76,42.29,27.3,66.69,34.67,7.33,2.22,14.75,4.08,23.44,4.08Z"/>
  </g>
</svg>