<?xml version="1.0" encoding="UTF-8"?>
<svg id="Layer_2" data-name="Layer 2" xmlns="http://www.w3.org/2000/svg" viewBox="0 0 174.71 336.17">
  <defs>
    <style>
      .cls-1 {
        fill: #fff;
        stroke-width: 0px;
      }
    </style>
  </defs>
  <g id="Layer_2-2" data-name="Layer 2">
    <path class="cls-1" d="m145.79,0c5.15,1.21,10.44.46,15.63,1.21,3.45.5,6.97.65,10.46.82,1.96.1,2.84.62,2.82,2.89-.11,16.08-.1,32.16,0,48.24.01,2.24-.75,2.66-2.8,2.68-11.92.14-23.84-.55-35.75.45-14.3,1.19-22.09,8.91-22.46,23.16-.36,13.66-.11,27.34-.29,41.01-.04,2.81,1.53,2.55,3.33,2.54,17.39-.01,34.78.06,52.18-.08,2.99-.02,3.63.68,3.23,3.65-2.4,17.65-4.64,35.32-6.81,53.01-.33,2.67-1.42,3.26-3.97,3.24-14.66-.13-29.32.03-43.97-.14-3.13-.04-4.01.74-4,3.95.11,48.46.04,96.91.15,145.37,0,3.24-.68,4.19-4.08,4.16-18.05-.19-36.1-.16-54.14-.02-2.85.02-3.63-.64-3.63-3.57.1-48.57.04-97.13.15-145.7,0-3.27-.73-4.24-4.12-4.2-14.55.2-29.1-.04-43.64.18-3.44.05-4.09-1-4.06-4.21.16-17.28.18-34.57-.01-51.85-.04-3.31,1.01-3.91,4.04-3.88,14.77.15,29.53,0,44.3.13,2.74.02,3.48-.78,3.47-3.5-.06-15.86-.39-31.74.26-47.57.77-18.83,6.33-36.1,19.61-50.17,10.1-10.7,22.7-16.83,36.96-19.78C112.47,1.24,116.34.67,120.19,0c8.53,0,17.07,0,25.6,0Z"/>
  </g>
</svg>