<?xml version="1.0" encoding="UTF-8"?>
<svg id="Layer_2" data-name="Layer 2" xmlns="http://www.w3.org/2000/svg" viewBox="0 0 336.17 383.05">
  <defs>
    <style>
      .cls-1 {
        fill: #fff;
        stroke-width: 0px;
      }
    </style>
  </defs>
  <g id="Layer_2-2" data-name="Layer 2">
    <path class="cls-1" d="m116.32,383.05c-8.52-1.04-17.07-1.74-25.47-3.71C43.69,368.29,6.82,327.43.92,279.51c-7.86-63.9,35.44-121.57,99.27-132.08,11.13-1.83,22.33-1.99,33.56-.81,2.99.31,4.12,1.26,4.09,4.57-.2,18.46-.15,36.92-.04,55.38.02,3.23-.54,3.91-3.96,3.05-37-9.27-71.85,18.99-70.6,57.1.93,28.31,23.75,51.67,52.8,54.04,27.73,2.26,54.15-17.9,59.4-45.29.92-4.81,1.09-9.66,1.1-14.52.05-85.07.09-170.14.15-255.21,0-6.55-.76-5.66,5.85-5.68,17.59-.04,35.18.03,52.76-.06,2.68-.01,3.83.38,3.96,3.56,2.17,50.26,42.53,90.23,92.96,92.12,3.09.12,3.97,1,3.95,4.08-.14,18.09-.16,36.17.02,54.26.03,3.46-1.08,4.06-4.27,3.97-33-.94-62.79-11.21-89.55-30.45-.71-.51-1.41-1.03-2.14-1.5-.17-.11-.45-.05-.76-.08-.64,1.28-.3,2.65-.29,3.96.11,44.16.23,88.31.37,132.47.08,24.07-5.85,46.48-19.42,66.43-22.13,32.54-52.98,50.45-92.29,53.6-1.35.11-2.76-.08-4.02.64h-7.49Z"/>
  </g>
</svg>