<?xml version="1.0" encoding="UTF-8"?>
<svg id="Layer_2" data-name="Layer 2" xmlns="http://www.w3.org/2000/svg" viewBox="0 0 336.17 236.42">
  <defs>
    <style>
      .cls-1 {
        fill: #fff;
        stroke-width: 0px;
      }
    </style>
  </defs>
  <g id="Layer_2-2" data-name="Layer 2">
    <path class="cls-1" d="m0,160.88c0-32.16,0-64.33,0-96.49.43-4.33.82-8.67,1.31-13,1.01-8.85,2.95-17.42,7.47-25.25C15.95,13.74,27.65,8.06,40.8,4.7,55.19,1.03,69.93.1,84.71.08,135.9.01,187.09.02,238.28,0c10.5,0,21-.07,31.48.78,11.35.93,22.6,2.36,33.39,6.3,13.76,5.03,23.32,14.15,27.92,28.28,3.66,11.27,4.51,22.92,4.74,34.62.55,28.54.42,57.09.13,85.64-.11,11.27-1.25,22.47-3.82,33.49-4.96,21.28-17.03,35.95-38.57,42.12-12.3,3.53-24.9,4.95-37.58,5-55.34.21-110.69.15-166.03.17-15.13,0-30.16-1.04-44.78-5.31-15.87-4.64-28.68-13.25-36.12-28.57-4.49-9.26-6.5-19.17-7.76-29.31-.51-4.11-.2-8.3-1.27-12.34Zm129.36-43.98c0,11.59-.02,23.18,0,34.77.03,10.59,7.98,15.51,17.31,10.65,22.57-11.74,45.09-23.57,67.66-35.3,4.32-2.25,7.17-5.43,7.14-10.46-.04-5.03-2.98-8.13-7.3-10.36-22.5-11.63-44.95-23.36-67.45-35-9.29-4.81-17.33.13-17.36,10.62-.03,11.7,0,23.4,0,35.1Z"/>
  </g>
</svg>