<?xml version="1.0" encoding="UTF-8"?>
<svg id="Layer_2" data-name="Layer 2" xmlns="http://www.w3.org/2000/svg" viewBox="0 0 336.17 260.19">
  <defs>
    <style>
      .cls-1 {
        fill: #fff;
        stroke-width: 0px;
      }
    </style>
  </defs>
  <g id="Layer_2-2" data-name="Layer 2">
    <g>
      <path class="cls-1" d="m168.01,260.16c-34.57,0-69.13.07-103.7-.02-31.32-.08-56.73-20.83-63.12-51.33C.32,204.63,0,200.39,0,196.12.03,152.18.05,108.24,0,64.3c-.01-9.78,1.98-19.07,6.16-27.89,2.07-4.37,3.03-4.53,6.49-1.06,32.02,32.01,64.1,63.96,96,96.09,16.8,16.92,36.85,25.95,60.73,25.6,22.32-.33,41.31-8.84,57.09-24.65,31.9-31.96,63.85-63.87,95.78-95.8.69-.69,1.36-1.4,2.07-2.06,2.5-2.32,3.59-2.14,5.17,1.01,3.93,7.82,6.45,16.13,6.47,24.86.14,46.49.4,92.99-.06,139.48-.29,29.23-24.75,55.68-53.66,59.57-4,.54-7.99.73-12.01.73-34.08,0-68.16,0-102.24,0Z"/>
      <path class="cls-1" d="m168.18.03C202.38.03,236.58.1,270.78,0c13.13-.04,25.25,3.15,36.28,10.3,3.5,2.27,3.59,3.13.63,6.09-33.29,33.32-66.49,66.73-99.93,99.9-21.97,21.79-57.33,21.83-79.31.05C94.91,83.11,61.63,49.61,28.25,16.21c-2.79-2.8-2.68-3.63.71-5.83C38.99,3.88,49.97.17,61.94.13,97.35,0,132.77.08,168.18.08v-.05Z"/>
    </g>
  </g>
</svg>